# xmcd
#
# Track frame offsets: 
#        150
#        18485
#        31160
#        51245
#        81525
#        98739
#        114912
#        132597
#        151085
#        169805
#        182037
#        193564
#        213754
#        238563
#        256865
#        273831
#        291428
#        303020
#        323447
#        339149
#
# Disc length: 4747 seconds
#
# Revision: 0
# Processed by: cddbd v1.5.2PL0 Copyright (c) Steve Scherf et al.
# Submitted via: ExactAudioCopy v0.99pb5
#
DISCID=05128914
DTITLE=Various Artist - World's Best Dad CD1
DYEAR=2007
DGENRE=Rock
TTITLE0=ELO - Don't Bring Me Down
TTITLE1=Johnny Cash - Folsom Prison Blues
TTITLE2=Jeff Wayne - The Eve Of The War
TTITLE3=Jeff Buckley - Lover, You Should've Come Over
TTITLE4=Blue Oyster Cult - (Don't Fear) The Reaper
TTITLE5=ZZ Top - Legs
TTITLE6=Adam and the Ants - Kings Of the Wild Frontier
TTITLE7=Survivor - Eye Of The Tiger
TTITLE8=Prefab Sprout - When Love Breaks Down
TTITLE9=Teenage Fanclub - Mellow Doubt
TTITLE10=Super Furry Animals - Something For The Weekend
TTITLE11=Meat Loaf - Modern Girl
TTITLE12=Shawn Mullins - Lullaby
TTITLE13=Deacon Blue - Real Gone Kid
TTITLE14=America - Ventura Highway (Live)
TTITLE15=The Byrds - Turn! Turn! Turn!
TTITLE16=John Barry - Midnight Cowboy
TTITLE17=Daryl Hall and John Oates - Maneater
TTITLE18=Mainc Street Preachers - Theme From M*A*S*H (Suicide Is Painl
TTITLE18=ess)
TTITLE19=Primal Sream - Jailbird
EXTD=
EXTT0=
EXTT1=
EXTT2=
EXTT3=
EXTT4=
EXTT5=
EXTT6=
EXTT7=
EXTT8=
EXTT9=
EXTT10=
EXTT11=
EXTT12=
EXTT13=
EXTT14=
EXTT15=
EXTT16=
EXTT17=
EXTT18=
EXTT19=
PLAYORDER=
